<?xml version="1.0" standalone="no"?>
<!DOCTYPE svg PUBLIC "-//W3C//DTD SVG 20010904//EN"
 "http://www.w3.org/TR/2001/REC-SVG-20010904/DTD/svg10.dtd">
<svg version="1.0" xmlns="http://www.w3.org/2000/svg"
 width="128.000000pt" height="128.000000pt" viewBox="0 0 128.000000 128.000000"
 preserveAspectRatio="xMidYMid meet">

<g transform="translate(0.000000,128.000000) scale(0.100000,-0.100000)"
fill="#000000" stroke="none">
<path d="M678 731 l-3 -330 -29 -30 c-77 -81 -208 -41 -223 66 -10 76 41 133
126 143 l46 5 3 68 3 67 -58 0 c-143 -1 -250 -104 -261 -251 -4 -56 -1 -75 20
-120 49 -107 135 -163 248 -163 112 0 198 56 246 159 22 47 24 62 24 233 0
100 2 182 5 182 3 0 27 -11 53 -24 53 -27 152 -50 162 -39 4 5 5 38 2 76 -3
51 -8 67 -20 67 -38 0 -99 27 -133 60 -28 26 -42 52 -55 98 l-17 62 -68 0 -68
0 -3 -329z"/>
</g>
</svg>
